<svg width="193" height="87" viewBox="0 0 193 87" fill="none" xmlns="http://www.w3.org/2000/svg">
<path d="M29.7352 20C23.3217 32.827 10.4948 58.6558 10.4948 59.3555C30.7847 48.161 39.9385 58.1894 41.9791 64.6028H36.7318C17.1415 54.1081 11.3694 66.352 13.993 74.2231C22.7387 89.0907 35.8572 80.345 40.23 75.0976H28.8607L27.9861 68.1011H44.6028L50.7248 81.2196H58.5959C52.299 51.8342 33.8165 46.237 25.3624 47.1115L29.7352 35.7422L43.7283 47.9861L29.7352 20Z" fill="url(#paint0_linear_998_79)"/>
<path d="M12.2439 83.8433H0L6.12196 70.7248L12.2439 83.8433Z" fill="url(#paint1_linear_998_79)"/>
<path d="M84.8062 64.4126C80.8283 64.4126 77.9507 63.7884 76.1733 62.54C74.396 61.2705 73.4544 59.1864 73.3486 56.2876C73.2428 54.6795 73.2005 53.2196 73.2217 51.9077C73.264 50.5959 73.3381 49.1253 73.4438 47.4961H77.7285C77.6016 49.1253 77.5381 50.744 77.5381 52.3521C77.5592 53.9601 77.6227 55.5153 77.7285 57.0176C77.8343 58.2448 78.4162 59.1546 79.4741 59.7471C80.5321 60.3184 82.2777 60.604 84.7109 60.604C87.1019 60.604 88.7946 60.3184 89.7891 59.7471C90.8047 59.1546 91.376 58.2448 91.5029 57.0176C91.6087 55.5153 91.651 54.214 91.6299 53.1138C91.6299 51.9924 91.5876 50.6064 91.5029 48.9561C91.4183 47.6442 91.0692 46.5439 90.4556 45.6553C89.8631 44.7666 88.5301 44.1847 86.4565 43.9097L81.918 43.0845C79.527 42.6825 77.7285 42.1006 76.5225 41.3389C75.3376 40.556 74.5229 39.5615 74.0786 38.3555C73.6554 37.1283 73.4015 35.6366 73.3169 33.8804C73.2534 32.7166 73.2323 31.4788 73.2534 30.167C73.2746 28.834 73.3169 27.5433 73.3804 26.2949C73.4227 23.4173 74.3008 21.3649 76.0146 20.1377C77.7497 18.8893 80.6484 18.2651 84.7109 18.2651C88.4561 18.2651 91.175 18.8893 92.8677 20.1377C94.5815 21.3861 95.4914 23.4491 95.5972 26.3267C95.6606 27.3211 95.6818 28.5589 95.6606 30.04C95.6395 31.5 95.5972 33.0129 95.5337 34.5786H91.2173C91.3654 33.0763 91.4395 31.5741 91.4395 30.0718C91.4395 28.5695 91.3866 27.0778 91.2808 25.5967C91.1961 24.3906 90.6354 23.502 89.5986 22.9307C88.583 22.3594 86.922 22.0737 84.6157 22.0737C82.2248 22.0737 80.5109 22.3594 79.4741 22.9307C78.4585 23.502 77.8978 24.3906 77.792 25.5967C77.6862 26.9508 77.6333 28.3262 77.6333 29.7227C77.6545 31.1191 77.7074 32.505 77.792 33.8804C77.8766 35.425 78.2046 36.6099 78.7759 37.4351C79.3683 38.2391 80.7542 38.7681 82.9336 39.022L87.377 39.7202C89.7679 40.0799 91.5664 40.6618 92.7725 41.4658C93.9785 42.2699 94.7931 43.2961 95.2163 44.5444C95.6606 45.7716 95.9146 47.2422 95.978 48.9561C96.0838 50.5218 96.1261 51.7913 96.105 52.7646C96.0838 53.738 96.0203 54.9123 95.9146 56.2876C95.7664 59.1864 94.8249 61.2705 93.0898 62.54C91.376 63.7884 88.6147 64.4126 84.8062 64.4126ZM107.194 64H102.688L109.86 18.6777H118.938L126.174 64H121.667L119.699 51.4316H109.162L107.194 64ZM111.003 37.4985L109.575 47.3691H119.287L117.922 37.4668L115.7 22.7402H113.193L111.003 37.4985ZM136.47 64H131.963L139.136 18.6777H148.213L155.449 64H150.942L148.975 51.4316H138.438L136.47 64ZM140.278 37.4985L138.85 47.3691H148.562L147.197 37.4668L144.976 22.7402H142.468L140.278 37.4985ZM174.219 64.4126C170.199 64.4126 167.311 63.7884 165.555 62.54C163.799 61.2705 162.878 59.1864 162.793 56.2876C162.603 51.4422 162.508 46.4805 162.508 41.4023C162.508 36.3031 162.603 31.3519 162.793 26.5488C162.878 23.5654 163.799 21.439 165.555 20.1694C167.311 18.8999 170.167 18.2651 174.124 18.2651C177.975 18.2651 180.778 18.8893 182.535 20.1377C184.312 21.3861 185.275 23.4491 185.423 26.3267C185.55 27.6808 185.603 29.0562 185.582 30.4526C185.582 31.8491 185.529 33.2244 185.423 34.5786H181.011C181.117 33.1398 181.17 31.6481 181.17 30.1035C181.191 28.5378 181.138 27.0355 181.011 25.5967C180.927 24.3906 180.334 23.502 179.234 22.9307C178.134 22.3594 176.43 22.0737 174.124 22.0737C171.775 22.0737 170.04 22.3594 168.919 22.9307C167.819 23.502 167.247 24.3906 167.205 25.5967C167.036 30.8229 166.951 36.0703 166.951 41.3389C166.972 46.5863 167.057 51.8125 167.205 57.0176C167.247 58.2448 167.808 59.1546 168.887 59.7471C169.966 60.3184 171.744 60.604 174.219 60.604C176.674 60.604 178.483 60.3184 179.646 59.7471C180.81 59.1546 181.434 58.2448 181.519 57.0176C181.561 54.14 181.561 51.2729 181.519 48.4165H174.061V44.4175H185.804C185.91 45.8986 185.973 47.623 185.994 49.5908C186.015 51.5586 185.962 53.7909 185.835 56.2876C185.772 59.1864 184.82 61.2705 182.979 62.54C181.159 63.7884 178.239 64.4126 174.219 64.4126Z" fill="#C54248"/>
<path d="M76.1733 62.54L75.8827 62.9469L75.886 62.9492L76.1733 62.54ZM73.3486 56.2876L73.8483 56.2694L73.848 56.2621L73.8476 56.2548L73.3486 56.2876ZM73.2217 51.9077L72.7219 51.8916L72.7217 51.8997L73.2217 51.9077ZM73.4438 47.4961V46.9961H72.9753L72.9449 47.4637L73.4438 47.4961ZM77.7285 47.4961L78.227 47.5349L78.269 46.9961H77.7285V47.4961ZM77.5381 52.3521H77.038L77.0381 52.3586L77.5381 52.3521ZM77.7285 57.0176L77.2297 57.0527L77.2304 57.0605L77.7285 57.0176ZM79.4741 59.7471L79.2298 60.1834L79.2365 60.187L79.4741 59.7471ZM89.7891 59.7471L90.0381 60.1806L90.041 60.179L89.7891 59.7471ZM91.5029 57.0176L92.0003 57.069L92.0011 57.0609L92.0017 57.0527L91.5029 57.0176ZM91.6299 53.1138H91.1298L91.13 53.1234L91.6299 53.1138ZM91.5029 48.9561L92.0023 48.9304L92.0019 48.9239L91.5029 48.9561ZM90.4556 45.6553L90.0395 45.9327L90.0441 45.9394L90.4556 45.6553ZM86.4565 43.9097L86.3671 44.4016L86.3789 44.4037L86.3908 44.4053L86.4565 43.9097ZM81.918 43.0845L82.0074 42.5925L82.0009 42.5914L81.918 43.0845ZM76.5225 41.3389L76.2468 41.7561L76.2555 41.7616L76.5225 41.3389ZM74.0786 38.3555L73.6058 38.5185L73.6094 38.5283L74.0786 38.3555ZM73.3169 33.8804L73.8163 33.8563L73.8162 33.8531L73.3169 33.8804ZM73.2534 30.167L73.7534 30.1751L73.7534 30.1749L73.2534 30.167ZM73.3804 26.2949L73.8797 26.3203L73.8802 26.3113L73.8803 26.3023L73.3804 26.2949ZM76.0146 20.1377L76.3057 20.5442L76.3067 20.5436L76.0146 20.1377ZM92.8677 20.1377L92.5709 20.5401L92.5733 20.5418L92.8677 20.1377ZM95.5972 26.3267L95.0973 26.345L95.0982 26.3585L95.5972 26.3267ZM95.6606 30.04L96.1606 30.0473L96.1606 30.0472L95.6606 30.04ZM95.5337 34.5786V35.0786H96.0138L96.0333 34.5989L95.5337 34.5786ZM91.2173 34.5786L90.7197 34.5296L90.6656 35.0786H91.2173V34.5786ZM91.2808 25.5967L90.782 25.6317L90.782 25.6323L91.2808 25.5967ZM89.5986 22.9307L89.3535 23.3665L89.3573 23.3686L89.5986 22.9307ZM79.4741 22.9307L79.2328 22.4927L79.229 22.4949L79.4741 22.9307ZM77.792 25.5967L77.2939 25.553L77.2935 25.5577L77.792 25.5967ZM77.6333 29.7227H77.1332L77.1334 29.7302L77.6333 29.7227ZM77.792 33.8804L78.2913 33.853L78.291 33.8497L77.792 33.8804ZM78.7759 37.4351L78.3648 37.7197L78.369 37.7257L78.3734 37.7317L78.7759 37.4351ZM82.9336 39.022L83.0112 38.528L83.0014 38.5265L82.9915 38.5253L82.9336 39.022ZM87.377 39.7202L87.2993 40.2142L87.3026 40.2146L87.377 39.7202ZM95.2163 44.5444L94.7427 44.705L94.7462 44.7147L95.2163 44.5444ZM95.978 48.9561L95.4784 48.9746L95.4787 48.9822L95.4792 48.9898L95.978 48.9561ZM95.9146 56.2876L95.4159 56.2492L95.4152 56.2621L95.9146 56.2876ZM93.0898 62.54L93.3842 62.9442L93.3851 62.9436L93.0898 62.54ZM84.8062 64.4126V63.9126C80.8571 63.9126 78.1088 63.2884 76.4607 62.1309L76.1733 62.54L75.886 62.9492C77.7926 64.2884 80.7995 64.9126 84.8062 64.9126V64.4126ZM76.1733 62.54L76.464 62.1332C74.8516 60.9815 73.9504 59.0681 73.8483 56.2694L73.3486 56.2876L72.849 56.3058C72.9584 59.3046 73.9404 61.5595 75.8827 62.9469L76.1733 62.54ZM73.3486 56.2876L73.8476 56.2548C73.7425 54.6574 73.7007 53.2113 73.7216 51.9158L73.2217 51.9077L72.7217 51.8997C72.7003 53.2278 72.7432 54.7017 72.8497 56.3204L73.3486 56.2876ZM73.2217 51.9077L73.7214 51.9238C73.7635 50.6185 73.8373 49.1535 73.9428 47.5285L73.4438 47.4961L72.9449 47.4637C72.8388 49.0971 72.7645 50.5732 72.7219 51.8916L73.2217 51.9077ZM73.4438 47.4961V47.9961H77.7285V47.4961V46.9961H73.4438V47.4961ZM77.7285 47.4961L77.23 47.4572C77.1021 49.0992 77.0381 50.7308 77.0381 52.3521H77.5381H78.0381C78.0381 50.7571 78.101 49.1515 78.227 47.5349L77.7285 47.4961ZM77.5381 52.3521L77.0381 52.3586C77.0594 53.9756 77.1232 55.5403 77.2298 57.0527L77.7285 57.0176L78.2273 56.9825C78.1222 55.4903 78.0591 53.9447 78.038 52.3455L77.5381 52.3521ZM77.7285 57.0176L77.2304 57.0605C77.3501 58.4497 78.0246 59.5084 79.2298 60.1833L79.4741 59.7471L79.7184 59.3108C78.8078 58.8008 78.3185 58.0399 78.2267 56.9746L77.7285 57.0176ZM79.4741 59.7471L79.2365 60.187C80.4103 60.8209 82.2633 61.104 84.7109 61.104V60.604V60.104C82.2921 60.104 80.6538 59.8158 79.7117 59.3071L79.4741 59.7471ZM84.7109 60.604V61.104C87.1135 61.104 88.9218 60.8219 90.0381 60.1806L89.7891 59.7471L89.54 59.3135C88.6674 59.8148 87.0902 60.104 84.7109 60.104V60.604ZM89.7891 59.7471L90.041 60.179C91.2022 59.5016 91.8579 58.4458 92.0003 57.069L91.5029 57.0176L91.0056 56.9661C90.8941 58.0438 90.4071 58.8077 89.5371 59.3152L89.7891 59.7471ZM91.5029 57.0176L92.0017 57.0527C92.1082 55.5405 92.1513 54.2236 92.1298 53.1042L91.6299 53.1138L91.13 53.1234C91.1508 54.2044 91.1093 55.4901 91.0042 56.9825L91.5029 57.0176ZM91.6299 53.1138H92.1299C92.1299 51.9809 92.0872 50.5858 92.0023 48.9304L91.5029 48.9561L91.0036 48.9817C91.088 50.6271 91.1299 52.0038 91.1299 53.1138H91.6299ZM91.5029 48.9561L92.0019 48.9239C91.9127 47.5413 91.5422 46.349 90.867 45.3712L90.4556 45.6553L90.0441 45.9394C90.5962 46.7389 90.9239 47.7471 91.004 48.9882L91.5029 48.9561ZM90.4556 45.6553L90.8716 45.3779C90.1498 44.2952 88.6162 43.6918 86.5223 43.414L86.4565 43.9097L86.3908 44.4053C88.444 44.6777 89.5764 45.238 90.0395 45.9326L90.4556 45.6553ZM86.4565 43.9097L86.546 43.4177L82.0074 42.5925L81.918 43.0845L81.8285 43.5764L86.3671 44.4016L86.4565 43.9097ZM81.918 43.0845L82.0009 42.5914C79.6359 42.1937 77.9134 41.626 76.7895 40.9161L76.5225 41.3389L76.2555 41.7616C77.5436 42.5752 79.4181 43.1712 81.8351 43.5776L81.918 43.0845ZM76.5225 41.3389L76.7981 40.9217C75.6923 40.1911 74.9514 39.2782 74.5478 38.1826L74.0786 38.3555L73.6094 38.5283C74.0945 39.8449 74.9828 40.9209 76.2468 41.756L76.5225 41.3389ZM74.0786 38.3555L74.5513 38.1925C74.1479 37.0227 73.8994 35.5807 73.8163 33.8563L73.3169 33.8804L72.8175 33.9044C72.9036 35.6924 73.1629 37.2338 73.6059 38.5185L74.0786 38.3555ZM73.3169 33.8804L73.8162 33.8531C73.7534 32.7025 73.7324 31.4766 73.7534 30.1751L73.2534 30.167L72.7535 30.1589C72.7322 31.4811 72.7534 32.7308 72.8176 33.9076L73.3169 33.8804ZM73.2534 30.167L73.7534 30.1749C73.7744 28.8474 73.8166 27.5625 73.8797 26.3203L73.3804 26.2949L72.881 26.2695C72.8172 27.5241 72.7747 28.8206 72.7535 30.1591L73.2534 30.167ZM73.3804 26.2949L73.8803 26.3023C73.9212 23.5208 74.7644 21.6479 76.3057 20.5442L76.0146 20.1377L75.7236 19.7312C73.8371 21.0819 72.9242 23.3138 72.8804 26.2876L73.3804 26.2949ZM76.0146 20.1377L76.3067 20.5436C77.9088 19.3908 80.6727 18.7651 84.7109 18.7651V18.2651V17.7651C80.6242 17.7651 77.5906 18.3878 75.7226 19.7318L76.0146 20.1377ZM84.7109 18.2651V18.7651C88.4228 18.7651 91.0088 19.3881 92.5709 20.5401L92.8677 20.1377L93.1644 19.7353C91.3411 18.3906 88.4893 17.7651 84.7109 17.7651V18.2651ZM92.8677 20.1377L92.5733 20.5418C94.1224 21.6702 94.9952 23.5621 95.0975 26.345L95.5972 26.3267L96.0968 26.3083C95.9876 23.336 95.0406 21.1019 93.1621 19.7335L92.8677 20.1377ZM95.5972 26.3267L95.0982 26.3585C95.1605 27.3354 95.1817 28.5592 95.1607 30.0329L95.6606 30.04L96.1606 30.0472C96.1819 28.5586 96.1607 27.3068 96.0962 26.2948L95.5972 26.3267ZM95.6606 30.04L95.1607 30.0328C95.1396 31.4881 95.0974 32.9966 95.0341 34.5584L95.5337 34.5786L96.0333 34.5989C96.0969 33.0291 96.1394 31.5119 96.1606 30.0473L95.6606 30.04ZM95.5337 34.5786V34.0786H91.2173V34.5786V35.0786H95.5337V34.5786ZM91.2173 34.5786L91.7149 34.6277C91.8646 33.1092 91.9395 31.5905 91.9395 30.0718H91.4395H90.9395C90.9395 31.5576 90.8662 33.0435 90.7197 34.5296L91.2173 34.5786ZM91.4395 30.0718H91.9395C91.9395 28.5578 91.8861 27.0542 91.7795 25.5611L91.2808 25.5967L90.782 25.6323C90.887 27.1014 90.9395 28.5812 90.9395 30.0718H91.4395ZM91.2808 25.5967L91.7795 25.5617C91.6833 24.1907 91.0292 23.148 89.8399 22.4927L89.5986 22.9307L89.3573 23.3686C90.2417 23.8559 90.7089 24.5906 90.782 25.6317L91.2808 25.5967ZM89.5986 22.9307L89.8438 22.4949C88.7102 21.8573 86.9391 21.5737 84.6157 21.5737V22.0737V22.5737C86.905 22.5737 88.4558 22.8615 89.3535 23.3665L89.5986 22.9307ZM84.6157 22.0737V21.5737C82.21 21.5737 80.3869 21.8568 79.2328 22.4927L79.4741 22.9307L79.7154 23.3686C80.6349 22.8619 82.2395 22.5737 84.6157 22.5737V22.0737ZM79.4741 22.9307L79.229 22.4949C78.0629 23.1508 77.4135 24.1901 77.2939 25.553L77.792 25.5967L78.2901 25.6404C78.3821 24.5911 78.8541 23.8531 79.7193 23.3665L79.4741 22.9307ZM77.792 25.5967L77.2935 25.5577C77.1867 26.9252 77.1333 28.3135 77.1333 29.7227H77.6333H78.1333C78.1333 28.3388 78.1857 26.9765 78.2905 25.6356L77.792 25.5967ZM77.6333 29.7227L77.1334 29.7302C77.1546 31.1343 77.2078 32.528 77.2929 33.9111L77.792 33.8804L78.291 33.8497C78.2069 32.4821 78.1543 31.104 78.1332 29.7151L77.6333 29.7227ZM77.792 33.8804L77.2927 33.9077C77.3799 35.4986 77.7197 36.7879 78.3648 37.7197L78.7759 37.4351L79.187 37.1505C78.6894 36.4318 78.3733 35.3513 78.2912 33.853L77.792 33.8804ZM78.7759 37.4351L78.3734 37.7317C78.7477 38.2397 79.3396 38.6188 80.0813 38.9019C80.8268 39.1865 81.7625 39.3889 82.8757 39.5186L82.9336 39.022L82.9915 38.5253C81.9253 38.4011 81.0784 38.2122 80.4379 37.9677C79.7937 37.7218 79.3965 37.4344 79.1784 37.1385L78.7759 37.4351ZM82.9336 39.022L82.856 39.5159L87.2993 40.2142L87.377 39.7202L87.4546 39.2263L83.0112 38.528L82.9336 39.022ZM87.377 39.7202L87.3026 40.2146C89.6633 40.5698 91.3778 41.137 92.4951 41.8818L92.7725 41.4658L93.0498 41.0498C91.755 40.1866 89.8725 39.59 87.4513 39.2258L87.377 39.7202ZM92.7725 41.4658L92.4951 41.8818C93.6191 42.6311 94.3586 43.5716 94.7428 44.705L95.2163 44.5444L95.6898 44.3839C95.2277 43.0205 94.338 41.9086 93.0498 41.0498L92.7725 41.4658ZM95.2163 44.5444L94.7462 44.7147C95.1683 45.8806 95.4162 47.2972 95.4784 48.9746L95.978 48.9561L96.4777 48.9375C96.4129 47.1872 96.153 45.6627 95.6864 44.3742L95.2163 44.5444ZM95.978 48.9561L95.4792 48.9898C95.5845 50.5485 95.6258 51.8015 95.6051 52.7538L96.105 52.7646L96.6049 52.7755C96.6265 51.7812 96.5832 50.4952 96.4769 48.9223L95.978 48.9561ZM96.105 52.7646L95.6051 52.7538C95.5842 53.715 95.5214 54.8796 95.416 56.2492L95.9146 56.2876L96.4131 56.3259C96.5193 54.9449 96.5834 53.7609 96.6049 52.7755L96.105 52.7646ZM95.9146 56.2876L95.4152 56.2621C95.2719 59.0665 94.3692 60.9844 92.7946 62.1365L93.0898 62.54L93.3851 62.9436C95.2806 61.5566 96.261 59.3062 96.4139 56.3131L95.9146 56.2876ZM93.0898 62.54L92.7955 62.1359C91.212 63.2893 88.5829 63.9126 84.8062 63.9126V64.4126V64.9126C88.6466 64.9126 91.54 64.2875 93.3842 62.9442L93.0898 62.54ZM107.194 64V64.5H107.622L107.688 64.0773L107.194 64ZM102.688 64L102.194 63.9218L102.102 64.5H102.688V64ZM109.86 18.6777V18.1777H109.433L109.366 18.5996L109.86 18.6777ZM118.938 18.6777L119.431 18.5989L119.364 18.1777H118.938V18.6777ZM126.174 64V64.5H126.76L126.668 63.9212L126.174 64ZM121.667 64L121.173 64.0773L121.239 64.5H121.667V64ZM119.699 51.4316L120.193 51.3543L120.127 50.9316H119.699V51.4316ZM109.162 51.4316V50.9316H108.734L108.668 51.3543L109.162 51.4316ZM111.003 37.4985L110.508 37.4251L110.508 37.4269L111.003 37.4985ZM109.575 47.3691L109.08 47.2975L108.997 47.8691H109.575V47.3691ZM119.287 47.3691V47.8691H119.86L119.782 47.3009L119.287 47.3691ZM117.922 37.4668L118.417 37.3985L118.416 37.3922L117.922 37.4668ZM115.7 22.7402L116.195 22.6656L116.13 22.2402H115.7V22.7402ZM113.193 22.7402V22.2402H112.762L112.698 22.6668L113.193 22.7402ZM107.194 64V63.5H102.688V64V64.5H107.194V64ZM102.688 64L103.181 64.0782L110.354 18.7559L109.86 18.6777L109.366 18.5996L102.194 63.9218L102.688 64ZM109.86 18.6777V19.1777H118.938V18.6777V18.1777H109.86V18.6777ZM118.938 18.6777L118.444 18.7566L125.68 64.0788L126.174 64L126.668 63.9212L119.431 18.5989L118.938 18.6777ZM126.174 64V63.5H121.667V64V64.5H126.174V64ZM121.667 64L122.161 63.9227L120.193 51.3543L119.699 51.4316L119.205 51.509L121.173 64.0773L121.667 64ZM119.699 51.4316V50.9316H109.162V51.4316V51.9316H119.699V51.4316ZM109.162 51.4316L108.668 51.3543L106.7 63.9227L107.194 64L107.688 64.0773L109.656 51.509L109.162 51.4316ZM111.003 37.4985L110.508 37.4269L109.08 47.2975L109.575 47.3691L110.07 47.4407L111.498 37.5701L111.003 37.4985ZM109.575 47.3691V47.8691H119.287V47.3691V46.8691H109.575V47.3691ZM119.287 47.3691L119.782 47.3009L118.417 37.3985L117.922 37.4668L117.427 37.5351L118.791 47.4374L119.287 47.3691ZM117.922 37.4668L118.416 37.3922L116.195 22.6656L115.7 22.7402L115.206 22.8148L117.427 37.5414L117.922 37.4668ZM115.7 22.7402V22.2402H113.193V22.7402V23.2402H115.7V22.7402ZM113.193 22.7402L112.698 22.6668L110.508 37.4251L111.003 37.4985L111.498 37.5719L113.687 22.8136L113.193 22.7402ZM136.47 64V64.5H136.898L136.964 64.0773L136.47 64ZM131.963 64L131.469 63.9218L131.378 64.5H131.963V64ZM139.136 18.6777V18.1777H138.709L138.642 18.5996L139.136 18.6777ZM148.213 18.6777L148.707 18.5989L148.639 18.1777H148.213V18.6777ZM155.449 64V64.5H156.035L155.943 63.9212L155.449 64ZM150.942 64L150.448 64.0773L150.515 64.5H150.942V64ZM148.975 51.4316L149.469 51.3543L149.402 50.9316H148.975V51.4316ZM138.438 51.4316V50.9316H138.01L137.944 51.3543L138.438 51.4316ZM140.278 37.4985L139.784 37.4251L139.783 37.4269L140.278 37.4985ZM138.85 47.3691L138.355 47.2975L138.273 47.8691H138.85V47.3691ZM148.562 47.3691V47.8691H149.136L149.057 47.3009L148.562 47.3691ZM147.197 37.4668L147.693 37.3985L147.692 37.3922L147.197 37.4668ZM144.976 22.7402L145.47 22.6656L145.406 22.2402H144.976V22.7402ZM142.468 22.7402V22.2402H142.037L141.974 22.6668L142.468 22.7402ZM136.47 64V63.5H131.963V64V64.5H136.47V64ZM131.963 64L132.457 64.0782L139.63 18.7559L139.136 18.6777L138.642 18.5996L131.469 63.9218L131.963 64ZM139.136 18.6777V19.1777H148.213V18.6777V18.1777H139.136V18.6777ZM148.213 18.6777L147.719 18.7566L154.955 64.0788L155.449 64L155.943 63.9212L148.707 18.5989L148.213 18.6777ZM155.449 64V63.5H150.942V64V64.5H155.449V64ZM150.942 64L151.436 63.9227L149.469 51.3543L148.975 51.4316L148.481 51.509L150.448 64.0773L150.942 64ZM148.975 51.4316V50.9316H138.438V51.4316V51.9316H148.975V51.4316ZM138.438 51.4316L137.944 51.3543L135.976 63.9227L136.47 64L136.964 64.0773L138.931 51.509L138.438 51.4316ZM140.278 37.4985L139.783 37.4269L138.355 47.2975L138.85 47.3691L139.345 47.4407L140.773 37.5701L140.278 37.4985ZM138.85 47.3691V47.8691H148.562V47.3691V46.8691H138.85V47.3691ZM148.562 47.3691L149.057 47.3009L147.693 37.3985L147.197 37.4668L146.702 37.5351L148.067 47.4374L148.562 47.3691ZM147.197 37.4668L147.692 37.3922L145.47 22.6656L144.976 22.7402L144.481 22.8148L146.703 37.5414L147.197 37.4668ZM144.976 22.7402V22.2402H142.468V22.7402V23.2402H144.976V22.7402ZM142.468 22.7402L141.974 22.6668L139.784 37.4251L140.278 37.4985L140.773 37.5719L142.963 22.8136L142.468 22.7402ZM165.555 62.54L165.262 62.9453L165.265 62.9476L165.555 62.54ZM162.793 56.2876L163.293 56.273L163.293 56.268L162.793 56.2876ZM162.793 26.5488L163.293 26.5686L163.293 26.563L162.793 26.5488ZM182.535 20.1377L182.245 20.5452L182.247 20.5469L182.535 20.1377ZM185.423 26.3267L184.924 26.3524L184.924 26.3629L184.925 26.3733L185.423 26.3267ZM185.582 30.4526L185.082 30.4451V30.4526H185.582ZM185.423 34.5786V35.0786H185.885L185.921 34.6176L185.423 34.5786ZM181.011 34.5786L180.513 34.5419L180.473 35.0786H181.011V34.5786ZM181.17 30.1035L180.67 30.0968V30.1035H181.17ZM181.011 25.5967L180.512 25.6317L180.513 25.6406L181.011 25.5967ZM168.919 22.9307L168.692 22.4851L168.689 22.4869L168.919 22.9307ZM167.205 25.5967L166.705 25.5791L166.705 25.5805L167.205 25.5967ZM166.951 41.3389H166.451L166.451 41.3409L166.951 41.3389ZM167.205 57.0176L166.705 57.0318L166.705 57.0348L167.205 57.0176ZM168.887 59.7471L168.647 60.1854L168.653 60.189L168.887 59.7471ZM179.646 59.7471L179.867 60.196L179.873 60.1927L179.646 59.7471ZM181.519 57.0176L182.018 57.052L182.019 57.0385L182.019 57.0249L181.519 57.0176ZM181.519 48.4165L182.019 48.4091L182.012 47.9165H181.519V48.4165ZM174.061 48.4165H173.561V48.9165H174.061V48.4165ZM174.061 44.4175V43.9175H173.561V44.4175H174.061ZM185.804 44.4175L186.302 44.3819L186.269 43.9175H185.804V44.4175ZM185.835 56.2876L185.336 56.2622L185.336 56.2694L185.336 56.2766L185.835 56.2876ZM182.979 62.54L183.262 62.9523L183.263 62.9516L182.979 62.54ZM174.219 64.4126V63.9126C170.226 63.9126 167.469 63.2877 165.844 62.1325L165.555 62.54L165.265 62.9476C167.152 64.2891 170.173 64.9126 174.219 64.9126V64.4126ZM165.555 62.54L165.848 62.1348C164.257 60.985 163.375 59.0731 163.293 56.273L162.793 56.2876L162.294 56.3022C162.381 59.2996 163.34 61.556 165.262 62.9453L165.555 62.54ZM162.793 56.2876L163.293 56.268C163.103 51.4294 163.008 46.4742 163.008 41.4023H162.508H162.008C162.008 46.4867 162.103 51.455 162.294 56.3072L162.793 56.2876ZM162.508 41.4023H163.008C163.008 36.3093 163.103 31.3647 163.293 26.5686L162.793 26.5488L162.294 26.529C162.103 31.3391 162.008 36.2969 162.008 41.4023H162.508ZM162.793 26.5488L163.293 26.563C163.375 23.6724 164.261 21.7218 165.848 20.5746L165.555 20.1694L165.262 19.7642C163.336 21.1561 162.381 23.4584 162.294 26.5346L162.793 26.5488ZM165.555 20.1694L165.848 20.5746C167.473 19.3997 170.197 18.7651 174.124 18.7651V18.2651V17.7651C170.138 17.7651 167.149 18.4001 165.262 19.7642L165.555 20.1694ZM174.124 18.2651V18.7651C177.943 18.7651 180.617 19.3883 182.245 20.5452L182.535 20.1377L182.824 19.7302C180.94 18.3904 178.007 17.7651 174.124 17.7651V18.2651ZM182.535 20.1377L182.247 20.5469C183.86 21.6798 184.781 23.5743 184.924 26.3524L185.423 26.3267L185.922 26.301C185.769 23.3238 184.764 21.0924 182.822 19.7285L182.535 20.1377ZM185.423 26.3267L184.925 26.3733C185.05 27.709 185.102 29.0662 185.082 30.4451L185.582 30.4526L186.081 30.4602C186.103 29.0461 186.049 27.6527 185.921 26.28L185.423 26.3267ZM185.582 30.4526H185.082C185.082 31.8365 185.029 33.1988 184.924 34.5397L185.423 34.5786L185.921 34.6176C186.028 33.2501 186.082 31.8618 186.082 30.4526H185.582ZM185.423 34.5786V34.0786H181.011V34.5786V35.0786H185.423V34.5786ZM181.011 34.5786L181.51 34.6153C181.617 33.1635 181.67 31.6595 181.67 30.1035H181.17H180.67C180.67 31.6367 180.617 33.1162 180.513 34.5419L181.011 34.5786ZM181.17 30.1035L181.67 30.1103C181.691 28.529 181.638 27.0097 181.509 25.5527L181.011 25.5967L180.513 25.6406C180.639 27.0612 180.691 28.5465 180.67 30.0968L181.17 30.1035ZM181.011 25.5967L181.51 25.5617C181.413 24.1766 180.714 23.1359 179.464 22.4869L179.234 22.9307L179.003 23.3744C179.954 23.868 180.44 24.6046 180.512 25.6317L181.011 25.5967ZM179.234 22.9307L179.464 22.4869C178.255 21.859 176.453 21.5737 174.124 21.5737V22.0737V22.5737C176.408 22.5737 178.012 22.8598 179.003 23.3744L179.234 22.9307ZM174.124 22.0737V21.5737C171.754 21.5737 169.921 21.8589 168.692 22.4851L168.919 22.9307L169.146 23.3762C170.16 22.8598 171.797 22.5737 174.124 22.5737V22.0737ZM168.919 22.9307L168.689 22.4869C167.434 23.1385 166.754 24.1868 166.705 25.5791L167.205 25.5967L167.705 25.6142C167.741 24.5944 168.204 23.8654 169.149 23.3744L168.919 22.9307ZM167.205 25.5967L166.705 25.5805C166.536 30.8122 166.451 36.065 166.451 41.3389H166.951H167.451C167.451 36.0757 167.536 30.8337 167.705 25.6129L167.205 25.5967ZM166.951 41.3389L166.451 41.3409C166.472 46.5923 166.557 51.8226 166.705 57.0318L167.205 57.0176L167.705 57.0034C167.557 51.8024 167.472 46.5802 167.451 41.3368L166.951 41.3389ZM167.205 57.0176L166.705 57.0348C166.754 58.4388 167.413 59.5083 168.647 60.1854L168.887 59.7471L169.128 59.3088C168.203 58.8009 167.741 58.0508 167.705 57.0003L167.205 57.0176ZM168.887 59.7471L168.653 60.189C169.847 60.8208 171.73 61.104 174.219 61.104V60.604V60.104C171.758 60.104 170.086 59.8159 169.121 59.3052L168.887 59.7471ZM174.219 60.604V61.104C176.694 61.104 178.597 60.8191 179.867 60.1959L179.646 59.7471L179.426 59.2982C178.368 59.8176 176.654 60.104 174.219 60.104V60.604ZM179.646 59.7471L179.873 60.1927C181.182 59.5264 181.92 58.4673 182.018 57.052L181.519 57.0176L181.02 56.9832C180.949 58.0223 180.438 58.7828 179.42 59.3015L179.646 59.7471ZM181.519 57.0176L182.019 57.0249C182.061 54.1424 182.061 51.2705 182.019 48.4091L181.519 48.4165L181.019 48.4239C181.061 51.2754 181.061 54.1375 181.019 57.0102L181.519 57.0176ZM181.519 48.4165V47.9165H174.061V48.4165V48.9165H181.519V48.4165ZM174.061 48.4165H174.561V44.4175H174.061H173.561V48.4165H174.061ZM174.061 44.4175V44.9175H185.804V44.4175V43.9175H174.061V44.4175ZM185.804 44.4175L185.305 44.4531C185.41 45.9215 185.473 47.6355 185.494 49.5962L185.994 49.5908L186.494 49.5854C186.473 47.6106 186.409 45.8757 186.302 44.3819L185.804 44.4175ZM185.994 49.5908L185.494 49.5962C185.515 51.5514 185.463 53.7731 185.336 56.2622L185.835 56.2876L186.335 56.313C186.462 53.8086 186.515 51.5658 186.494 49.5854L185.994 49.5908ZM185.835 56.2876L185.336 56.2766C185.274 59.0674 184.366 60.9762 182.695 62.1284L182.979 62.54L183.263 62.9516C185.274 61.5648 186.269 59.3053 186.335 56.2985L185.835 56.2876ZM182.979 62.54L182.696 62.1277C181.004 63.2886 178.21 63.9126 174.219 63.9126V64.4126V64.9126C178.269 64.9126 181.315 64.2882 183.262 62.9523L182.979 62.54Z" fill="#C54248"/>
<path d="M74.7839 72.874V82H72.5609V72.874H74.7839ZM80.8149 74.668C81.6642 74.668 82.3402 74.9453 82.8429 75.5C83.3542 76.046 83.6099 76.8 83.6099 77.762V82H81.3999V78.061C81.3999 77.5757 81.2742 77.1987 81.0229 76.93C80.7715 76.6613 80.4335 76.527 80.0089 76.527C79.5842 76.527 79.2462 76.6613 78.9949 76.93C78.7435 77.1987 78.6179 77.5757 78.6179 78.061V82H76.3949V74.746H78.6179V75.708C78.8432 75.3873 79.1465 75.136 79.5279 74.954C79.9092 74.7633 80.3382 74.668 80.8149 74.668ZM88.7946 76.592H87.5986V82H85.3756V76.592H84.5696V74.746H85.3756V74.538C85.3756 73.6453 85.6313 72.9693 86.1426 72.51C86.654 72.042 87.4036 71.808 88.3916 71.808C88.5563 71.808 88.6776 71.8123 88.7556 71.821V73.706C88.331 73.68 88.032 73.7407 87.8586 73.888C87.6853 74.0353 87.5986 74.2997 87.5986 74.681V74.746H88.7946V76.592ZM90.9572 73.992C90.5672 73.992 90.2465 73.8793 89.9952 73.654C89.7525 73.42 89.6312 73.134 89.6312 72.796C89.6312 72.4493 89.7525 72.1633 89.9952 71.938C90.2465 71.704 90.5672 71.587 90.9572 71.587C91.3385 71.587 91.6505 71.704 91.8932 71.938C92.1445 72.1633 92.2702 72.4493 92.2702 72.796C92.2702 73.134 92.1445 73.42 91.8932 73.654C91.6505 73.8793 91.3385 73.992 90.9572 73.992ZM92.0622 74.746V82H89.8392V74.746H92.0622ZM98.0932 74.668C98.9425 74.668 99.6185 74.9453 100.121 75.5C100.633 76.046 100.888 76.8 100.888 77.762V82H98.6782V78.061C98.6782 77.5757 98.5525 77.1987 98.3012 76.93C98.0499 76.6613 97.7119 76.527 97.2872 76.527C96.8625 76.527 96.5245 76.6613 96.2732 76.93C96.0219 77.1987 95.8962 77.5757 95.8962 78.061V82H93.6732V74.746H95.8962V75.708C96.1215 75.3873 96.4249 75.136 96.8062 74.954C97.1875 74.7633 97.6165 74.668 98.0932 74.668ZM103.551 73.992C103.161 73.992 102.84 73.8793 102.589 73.654C102.346 73.42 102.225 73.134 102.225 72.796C102.225 72.4493 102.346 72.1633 102.589 71.938C102.84 71.704 103.161 71.587 103.551 71.587C103.932 71.587 104.244 71.704 104.487 71.938C104.738 72.1633 104.864 72.4493 104.864 72.796C104.864 73.134 104.738 73.42 104.487 73.654C104.244 73.8793 103.932 73.992 103.551 73.992ZM104.656 74.746V82H102.433V74.746H104.656ZM110.31 80.115V82H109.179C108.373 82 107.745 81.805 107.294 81.415C106.843 81.0163 106.618 80.3707 106.618 79.478V76.592H105.734V74.746H106.618V72.978H108.841V74.746H110.297V76.592H108.841V79.504C108.841 79.7207 108.893 79.8767 108.997 79.972C109.101 80.0673 109.274 80.115 109.517 80.115H110.31ZM118.386 78.256C118.386 78.464 118.373 78.6807 118.347 78.906H113.316C113.351 79.3567 113.494 79.7033 113.745 79.946C114.005 80.18 114.322 80.297 114.694 80.297C115.249 80.297 115.635 80.063 115.851 79.595H118.217C118.096 80.0717 117.875 80.5007 117.554 80.882C117.242 81.2633 116.848 81.5623 116.371 81.779C115.895 81.9957 115.362 82.104 114.772 82.104C114.062 82.104 113.429 81.9523 112.874 81.649C112.32 81.3457 111.886 80.9123 111.574 80.349C111.262 79.7857 111.106 79.127 111.106 78.373C111.106 77.619 111.258 76.9603 111.561 76.397C111.873 75.8337 112.307 75.4003 112.861 75.097C113.416 74.7937 114.053 74.642 114.772 74.642C115.474 74.642 116.098 74.7893 116.644 75.084C117.19 75.3787 117.615 75.799 117.918 76.345C118.23 76.891 118.386 77.528 118.386 78.256ZM116.111 77.671C116.111 77.2897 115.981 76.9863 115.721 76.761C115.461 76.5357 115.136 76.423 114.746 76.423C114.374 76.423 114.057 76.5313 113.797 76.748C113.546 76.9647 113.39 77.2723 113.329 77.671H116.111ZM121.937 77.424C121.937 76.5227 122.132 75.721 122.522 75.019C122.912 74.3083 123.453 73.758 124.147 73.368C124.849 72.9693 125.642 72.77 126.526 72.77C127.609 72.77 128.536 73.056 129.308 73.628C130.079 74.2 130.595 74.98 130.855 75.968H128.411C128.229 75.5867 127.969 75.2963 127.631 75.097C127.301 74.8977 126.924 74.798 126.5 74.798C125.815 74.798 125.26 75.0363 124.836 75.513C124.411 75.9897 124.199 76.6267 124.199 77.424C124.199 78.2213 124.411 78.8583 124.836 79.335C125.26 79.8117 125.815 80.05 126.5 80.05C126.924 80.05 127.301 79.9503 127.631 79.751C127.969 79.5517 128.229 79.2613 128.411 78.88H130.855C130.595 79.868 130.079 80.648 129.308 81.22C128.536 81.7833 127.609 82.065 126.526 82.065C125.642 82.065 124.849 81.87 124.147 81.48C123.453 81.0813 122.912 80.531 122.522 79.829C122.132 79.127 121.937 78.3253 121.937 77.424ZM134.439 75.955C134.699 75.5563 135.024 75.2443 135.414 75.019C135.804 74.785 136.237 74.668 136.714 74.668V77.021H136.103C135.548 77.021 135.132 77.1423 134.855 77.385C134.578 77.619 134.439 78.035 134.439 78.633V82H132.216V74.746H134.439V75.955ZM144.615 78.256C144.615 78.464 144.602 78.6807 144.576 78.906H139.545C139.579 79.3567 139.722 79.7033 139.974 79.946C140.234 80.18 140.55 80.297 140.923 80.297C141.477 80.297 141.863 80.063 142.08 79.595H144.446C144.324 80.0717 144.103 80.5007 143.783 80.882C143.471 81.2633 143.076 81.5623 142.6 81.779C142.123 81.9957 141.59 82.104 141.001 82.104C140.29 82.104 139.657 81.9523 139.103 81.649C138.548 81.3457 138.115 80.9123 137.803 80.349C137.491 79.7857 137.335 79.127 137.335 78.373C137.335 77.619 137.486 76.9603 137.79 76.397C138.102 75.8337 138.535 75.4003 139.09 75.097C139.644 74.7937 140.281 74.642 141.001 74.642C141.703 74.642 142.327 74.7893 142.873 75.084C143.419 75.3787 143.843 75.799 144.147 76.345C144.459 76.891 144.615 77.528 144.615 78.256ZM142.34 77.671C142.34 77.2897 142.21 76.9863 141.95 76.761C141.69 76.5357 141.365 76.423 140.975 76.423C140.602 76.423 140.286 76.5313 140.026 76.748C139.774 76.9647 139.618 77.2723 139.558 77.671H142.34ZM145.345 78.36C145.345 77.6147 145.484 76.9603 145.761 76.397C146.047 75.8337 146.433 75.4003 146.918 75.097C147.404 74.7937 147.945 74.642 148.543 74.642C149.055 74.642 149.501 74.746 149.882 74.954C150.272 75.162 150.571 75.435 150.779 75.773V74.746H153.002V82H150.779V80.973C150.563 81.311 150.259 81.584 149.869 81.792C149.488 82 149.042 82.104 148.53 82.104C147.941 82.104 147.404 81.9523 146.918 81.649C146.433 81.337 146.047 80.8993 145.761 80.336C145.484 79.764 145.345 79.1053 145.345 78.36ZM150.779 78.373C150.779 77.8183 150.623 77.3807 150.311 77.06C150.008 76.7393 149.635 76.579 149.193 76.579C148.751 76.579 148.374 76.7393 148.062 77.06C147.759 77.372 147.607 77.8053 147.607 78.36C147.607 78.9147 147.759 79.3567 148.062 79.686C148.374 80.0067 148.751 80.167 149.193 80.167C149.635 80.167 150.008 80.0067 150.311 79.686C150.623 79.3653 150.779 78.9277 150.779 78.373ZM158.654 80.115V82H157.523C156.717 82 156.088 81.805 155.638 81.415C155.187 81.0163 154.962 80.3707 154.962 79.478V76.592H154.078V74.746H154.962V72.978H157.185V74.746H158.641V76.592H157.185V79.504C157.185 79.7207 157.237 79.8767 157.341 79.972C157.445 80.0673 157.618 80.115 157.861 80.115H158.654ZM161.01 73.992C160.62 73.992 160.299 73.8793 160.048 73.654C159.805 73.42 159.684 73.134 159.684 72.796C159.684 72.4493 159.805 72.1633 160.048 71.938C160.299 71.704 160.62 71.587 161.01 71.587C161.391 71.587 161.703 71.704 161.946 71.938C162.197 72.1633 162.323 72.4493 162.323 72.796C162.323 73.134 162.197 73.42 161.946 73.654C161.703 73.8793 161.391 73.992 161.01 73.992ZM162.115 74.746V82H159.892V74.746H162.115ZM166.989 79.92L168.562 74.746H170.928L168.354 82H165.611L163.037 74.746H165.416L166.989 79.92ZM178.702 78.256C178.702 78.464 178.689 78.6807 178.663 78.906H173.632C173.666 79.3567 173.809 79.7033 174.061 79.946C174.321 80.18 174.637 80.297 175.01 80.297C175.564 80.297 175.95 80.063 176.167 79.595H178.533C178.411 80.0717 178.19 80.5007 177.87 80.882C177.558 81.2633 177.163 81.5623 176.687 81.779C176.21 81.9957 175.677 82.104 175.088 82.104C174.377 82.104 173.744 81.9523 173.19 81.649C172.635 81.3457 172.202 80.9123 171.89 80.349C171.578 79.7857 171.422 79.127 171.422 78.373C171.422 77.619 171.573 76.9603 171.877 76.397C172.189 75.8337 172.622 75.4003 173.177 75.097C173.731 74.7937 174.368 74.642 175.088 74.642C175.79 74.642 176.414 74.7893 176.96 75.084C177.506 75.3787 177.93 75.799 178.234 76.345C178.546 76.891 178.702 77.528 178.702 78.256ZM176.427 77.671C176.427 77.2897 176.297 76.9863 176.037 76.761C175.777 76.5357 175.452 76.423 175.062 76.423C174.689 76.423 174.373 76.5313 174.113 76.748C173.861 76.9647 173.705 77.2723 173.645 77.671H176.427ZM182.825 82.104C182.193 82.104 181.629 81.9957 181.135 81.779C180.641 81.5623 180.251 81.2677 179.965 80.895C179.679 80.5137 179.519 80.089 179.484 79.621H181.681C181.707 79.8723 181.824 80.076 182.032 80.232C182.24 80.388 182.496 80.466 182.799 80.466C183.077 80.466 183.289 80.414 183.436 80.31C183.592 80.1973 183.67 80.0543 183.67 79.881C183.67 79.673 183.562 79.5213 183.345 79.426C183.129 79.322 182.778 79.2093 182.292 79.088C181.772 78.9667 181.339 78.841 180.992 78.711C180.646 78.5723 180.347 78.36 180.095 78.074C179.844 77.7793 179.718 77.385 179.718 76.891C179.718 76.475 179.831 76.098 180.056 75.76C180.29 75.4133 180.628 75.1403 181.07 74.941C181.521 74.7417 182.054 74.642 182.669 74.642C183.579 74.642 184.294 74.8673 184.814 75.318C185.343 75.7687 185.646 76.3667 185.724 77.112H183.67C183.636 76.8607 183.523 76.6613 183.332 76.514C183.15 76.3667 182.908 76.293 182.604 76.293C182.344 76.293 182.145 76.345 182.006 76.449C181.868 76.5443 181.798 76.6787 181.798 76.852C181.798 77.06 181.907 77.216 182.123 77.32C182.349 77.424 182.695 77.528 183.163 77.632C183.701 77.7707 184.138 77.9093 184.476 78.048C184.814 78.178 185.109 78.3947 185.36 78.698C185.62 78.9927 185.755 79.3913 185.763 79.894C185.763 80.3187 185.642 80.7 185.399 81.038C185.165 81.3673 184.823 81.6273 184.372 81.818C183.93 82.0087 183.415 82.104 182.825 82.104ZM188.163 82.104C187.773 82.104 187.453 81.9913 187.201 81.766C186.959 81.532 186.837 81.246 186.837 80.908C186.837 80.5613 186.959 80.271 187.201 80.037C187.453 79.803 187.773 79.686 188.163 79.686C188.545 79.686 188.857 79.803 189.099 80.037C189.351 80.271 189.476 80.5613 189.476 80.908C189.476 81.246 189.351 81.532 189.099 81.766C188.857 81.9913 188.545 82.104 188.163 82.104Z" fill="#006CAC"/>
<defs>
<linearGradient id="paint0_linear_998_79" x1="29.2979" y1="20" x2="29.2979" y2="83.8433" gradientUnits="userSpaceOnUse">
<stop stop-color="#E97B40"/>
<stop offset="1" stop-color="#7D1114"/>
</linearGradient>
<linearGradient id="paint1_linear_998_79" x1="29.2979" y1="20" x2="29.2979" y2="83.8433" gradientUnits="userSpaceOnUse">
<stop stop-color="#E97B40"/>
<stop offset="1" stop-color="#7D1114"/>
</linearGradient>
</defs>
</svg>
